<svg width="321" height="213" viewBox="0 0 321 213" fill="none" xmlns="http://www.w3.org/2000/svg">
<g clip-path="url(#clip0_2591_297495)">
<path d="M123.672 212.52C105.356 169.66 96.3676 123.172 97.3538 76.3458C135.746 69.7248 174.279 63.1321 212.953 56.5535C210.304 91.4511 213.418 126.561 222.125 160.399L232.325 193.66C232.325 193.66 147.862 208.158 123.672 212.52Z" fill="#C29FE9"/>
<path d="M122.742 42.648C114.669 89.9264 117.078 138.405 129.8 184.653C170.883 181.335 212.107 177.961 253.458 174.531C242.004 140.565 236.411 104.891 236.89 69.0471L200.695 36.9587C174.645 38.8504 148.665 40.7563 122.742 42.6621V42.648Z" fill="#EDEBE9"/>
<path d="M201.16 61.9041C201.203 63.0758 201.456 64.2193 201.935 65.2781C202.414 66.3369 203.091 67.2968 203.95 68.1015C204.809 68.9062 205.796 69.5274 206.881 69.9367C207.965 70.3461 209.135 70.5438 210.29 70.5014L237.552 69.6403L200.357 36.6484L201.146 61.89L201.16 61.9041Z" fill="#EACEFF"/>
<path fill-rule="evenodd" clip-rule="evenodd" d="M144.678 78.237C143.171 78.35 142.03 79.677 142.156 81.2017C142.269 82.7122 143.593 83.8557 145.115 83.7286L181.408 80.877C182.915 80.764 184.057 79.437 183.93 77.9123C183.817 76.4018 182.493 75.2583 180.971 75.3854L144.678 78.237ZM143.551 99.1022C142.044 99.2152 140.902 100.542 141.029 102.067C141.142 103.577 142.466 104.721 143.988 104.594L217.56 98.8058C219.067 98.6928 220.209 97.3658 220.082 95.8412C219.969 94.3306 218.645 93.1871 217.123 93.3142L143.551 99.1022ZM141.466 124.259C141.353 122.749 142.48 121.421 143.988 121.294L217.56 115.506C219.067 115.393 220.392 116.523 220.518 118.033C220.631 119.544 219.504 120.871 217.997 120.998L144.425 126.786C142.917 126.899 141.593 125.77 141.466 124.259ZM147.862 142.978C146.355 143.091 145.214 144.418 145.34 145.943C145.453 147.454 146.778 148.597 148.299 148.47L223.224 142.569C224.731 142.456 225.872 141.129 225.745 139.604C225.633 138.094 224.308 136.95 222.787 137.077L147.862 142.978Z" fill="url(#paint0_linear_2591_297495)"/>
<path d="M223.745 143.176C223.59 143.204 223.435 143.233 223.266 143.247L148.341 149.148C147.426 149.218 146.538 148.936 145.848 148.329C145.157 147.736 144.721 146.903 144.65 145.986C144.58 145.068 144.861 144.179 145.467 143.487C146.059 142.795 146.89 142.357 147.806 142.287L222.73 136.386C223.646 136.315 224.534 136.598 225.224 137.205C225.915 137.798 226.351 138.63 226.422 139.548C226.492 140.466 226.21 141.355 225.605 142.047C225.111 142.626 224.463 143.007 223.731 143.176H223.745ZM147.637 143.699C147.2 143.797 146.806 144.023 146.51 144.376C146.158 144.8 145.974 145.322 146.017 145.873C146.059 146.423 146.313 146.917 146.735 147.284C147.158 147.637 147.679 147.821 148.229 147.778L223.153 141.877C223.703 141.835 224.196 141.581 224.562 141.157C224.914 140.734 225.097 140.197 225.055 139.647C225.013 139.096 224.759 138.602 224.337 138.235C223.914 137.868 223.393 137.699 222.843 137.741L147.919 143.642C147.82 143.642 147.721 143.67 147.637 143.684V143.699ZM218.518 121.605C218.363 121.633 218.208 121.662 218.053 121.676L144.481 127.464C143.565 127.534 142.678 127.252 141.987 126.645C141.297 126.052 140.86 125.219 140.79 124.302C140.635 122.41 142.044 120.758 143.946 120.603L217.518 114.815C219.405 114.659 221.068 116.085 221.209 117.977C221.35 119.713 220.166 121.252 218.518 121.605ZM142.156 124.203C142.199 124.753 142.452 125.247 142.875 125.614C143.298 125.967 143.833 126.151 144.368 126.109L217.954 120.32C219.081 120.236 219.941 119.233 219.842 118.104C219.758 116.975 218.757 116.114 217.63 116.212L144.044 122C142.917 122.085 142.058 123.087 142.156 124.217V124.203ZM218.095 99.427C217.94 99.4553 217.785 99.4835 217.63 99.4976L144.058 105.286C142.17 105.441 140.508 104.015 140.367 102.123C140.212 100.232 141.621 98.58 143.523 98.4247L217.095 92.6367C218.011 92.5661 218.898 92.8484 219.589 93.4555C220.279 94.0484 220.716 94.8813 220.786 95.7989C220.857 96.7165 220.575 97.6059 219.969 98.2977C219.476 98.8765 218.828 99.2576 218.095 99.427ZM143.34 99.8364C142.354 100.048 141.649 100.98 141.72 102.01C141.804 103.14 142.804 104.001 143.932 103.902L217.504 98.1141C218.053 98.0718 218.546 97.8177 218.912 97.3942C219.279 96.9707 219.448 96.4483 219.405 95.8978C219.363 95.3472 219.11 94.8531 218.687 94.486C218.264 94.1331 217.743 93.9496 217.194 93.9919L143.622 99.78C143.523 99.78 143.438 99.8082 143.34 99.8223V99.8364ZM181.943 81.4982C181.788 81.5265 181.633 81.5547 181.478 81.5688L145.186 84.4205C143.298 84.5758 141.635 83.1499 141.494 81.2582C141.353 79.3665 142.748 77.7148 144.65 77.5595L180.943 74.7079C182.831 74.5526 184.493 75.9784 184.634 77.8701C184.775 79.6065 183.592 81.1453 181.943 81.4982ZM144.467 78.9713C143.481 79.183 142.776 80.1147 142.847 81.1453C142.931 82.2747 143.932 83.1358 145.059 83.037L181.352 80.1853C182.479 80.1006 183.338 79.0983 183.239 77.9689C183.155 76.8396 182.155 75.9784 181.028 76.0772L144.735 78.9289C144.636 78.9289 144.552 78.9571 144.453 78.9713H144.467Z" fill="url(#paint1_linear_2591_297495)"/>
<path d="M150.412 59.9557L135.098 71.5317C134.098 72.3082 132.717 72.3082 131.731 71.5317L116.416 59.9557C108.287 53.8006 103.525 44.215 103.525 34.0224V10.7008C103.525 9.86791 104.187 9.26087 105.018 9.26087C109.442 9.43027 123.052 9.09146 133.449 0C143.467 8.69618 157.4 9.30322 161.881 9.2044C162.656 9.2044 163.318 9.81144 163.318 10.6444V33.9659C163.318 44.215 158.556 53.8006 150.426 59.9557H150.412Z" fill="url(#paint2_linear_2591_297495)"/>
<path d="M150.412 59.9557L135.098 71.5317C134.605 71.9129 133.985 72.0823 133.435 72.0823V0C143.453 8.69618 157.386 9.30322 161.867 9.2044C162.642 9.2044 163.304 9.81144 163.304 10.6444V33.9659C163.304 44.215 158.542 53.8006 150.412 59.9557Z" fill="url(#paint3_linear_2591_297495)"/>
<path d="M231.663 34.8553C230.592 35.9987 230.423 37.6928 231.184 38.9634C231.367 39.2175 231.536 39.4716 231.691 39.5845C233.001 40.9115 235.086 40.8692 236.411 39.5563L242.3 33.5C242.892 32.8506 243.314 31.9471 243.187 31.1283C243.216 30.4225 242.962 29.6319 242.469 29.1519C242.314 29.039 242.286 28.8978 242.131 28.7849C240.82 27.4578 238.735 27.5002 237.411 28.8131L231.663 34.8553Z" fill="#FFE192"/>
<path d="M240.806 52.8122C240.863 53.2216 241.046 53.4757 241.243 53.8569C241.99 55.1274 243.455 55.6074 244.808 55.3956L252.585 53.5039C253.514 53.2216 254.134 52.7134 254.712 51.9228C255.149 51.1605 255.304 50.2993 255.149 49.3535C255.064 48.8029 254.867 48.4218 254.529 48.0547C254.346 47.8006 254.022 47.4336 253.726 47.3489C252.965 46.9112 252.106 46.7559 251.162 46.9112L243.385 48.8029C242.455 49.0853 241.835 49.5935 241.257 50.384C240.68 51.1746 240.665 52.0075 240.792 52.8263L240.806 52.8122Z" fill="#FFE192"/>
<path d="M216.024 28.0649C215.996 28.7708 216.123 29.5754 216.489 30.2248C217.039 31.1142 217.954 31.6648 218.955 31.7918C220.786 31.933 222.378 30.5637 222.66 28.7143L223.519 19.8064C223.66 18.9452 223.378 18.0135 222.73 17.4206C222.195 16.6723 221.293 16.2488 220.448 16.1077C218.616 15.9665 217.024 17.3359 216.743 19.1852L216.024 28.0649Z" fill="#FFE192"/>
<path d="M9.53815 191.838L16.0472 189.961C17.3715 191.514 18.8086 192.94 20.3443 194.267C22.5562 196.144 24.8668 197.584 27.2901 198.798L26.5152 206.097C26.2898 208.525 27.9523 210.628 30.3755 210.953L44.7039 212.506C47.1272 212.732 49.2264 211.066 49.5504 208.638L50.3253 201.24C53.4108 200.464 56.2849 199.25 59.0322 197.711L65.0904 202.793C66.9642 204.346 69.7257 204.12 71.2613 202.243L80.5177 191.189C82.0675 189.311 81.842 186.544 79.9682 185.006L73.91 179.923C75.1217 176.719 75.6711 173.401 75.8966 170.084L83.6172 167.867C85.9278 167.204 87.2522 164.776 86.59 162.446L82.6169 148.64C81.9548 146.325 79.5315 144.998 77.2068 145.661L69.1621 147.976C67.6123 145.986 65.8512 144.108 63.8647 142.344C62.4276 141.129 61.0047 140.127 59.3422 139.139L60.2298 131.29C60.4552 128.862 58.7927 126.758 56.3694 126.433L42.0411 124.881C39.6178 124.655 37.5186 126.321 37.1945 128.749L36.5324 134.72C32.5593 135.384 28.699 136.711 25.0641 138.814L20.8797 135.285C19.0058 133.732 16.2444 133.958 14.7088 135.836L5.45239 146.889C3.90262 148.767 4.12804 151.534 6.00186 153.073L10.1862 156.602C8.86189 160.244 8.19971 164.112 8.19971 167.98L3.12773 169.42C0.817166 170.084 -0.507185 172.512 0.154991 174.841L4.12804 188.648C4.79022 191.189 7.2135 192.516 9.53815 191.852V191.838ZM29.3893 157.04C35.7857 149.303 47.254 148.315 54.9746 154.823C62.6953 161.232 63.6815 172.724 57.1866 180.46C50.7903 188.196 39.3219 189.184 31.6013 182.676C23.9933 176.154 23.0071 164.663 29.3893 157.04Z" fill="#EACEFF"/>
<path d="M258.967 112.359L263.813 113.135C264.137 114.575 264.701 116.001 265.25 117.328C266.138 119.205 267.237 120.97 268.449 122.523L265.687 127.055C264.8 128.607 265.25 130.584 266.786 131.473L275.718 136.993C277.268 137.882 279.241 137.431 280.128 135.892L282.988 131.247C285.2 131.685 287.624 131.798 289.934 131.685L292.357 136.993C293.132 138.645 295.006 139.308 296.654 138.546L306.249 134.127C307.897 133.351 308.56 131.473 307.799 129.822L305.375 124.513C307.137 122.749 308.574 120.758 309.785 118.655L315.632 119.643C317.393 119.968 319.056 118.754 319.267 116.989L320.915 106.599C321.239 104.834 320.028 103.168 318.267 102.957L312.209 101.968C311.885 100.204 311.222 98.3261 310.447 96.5473C309.898 95.3332 309.236 94.1192 308.461 93.018L311.434 88.1617C312.321 86.6088 311.87 84.6324 310.335 83.743L301.402 78.2232C299.853 77.3338 297.88 77.7856 296.993 79.3244L294.682 83.0795C291.822 82.3031 288.835 81.9784 285.862 82.1901L284.214 78.5479C283.439 76.8962 281.565 76.2327 279.917 76.995L270.322 81.4137C268.674 82.1901 268.012 84.0677 268.773 85.7194L270.421 89.3617C268.322 91.3522 266.673 93.7804 265.462 96.3214L261.601 95.6579C259.84 95.3332 258.178 96.5473 257.967 98.312L256.318 108.702C255.994 110.467 257.206 112.02 258.967 112.344V112.359ZM283.002 95.5591C289.624 92.4675 297.556 95.4462 300.642 102.081C303.727 108.716 300.754 116.664 294.133 119.756C287.511 122.848 279.579 119.869 276.493 113.234C273.408 106.599 276.381 98.6508 283.002 95.5591Z" fill="#EACEFF"/>
<path d="M257.502 200.93L259.714 201.283C259.869 201.932 260.122 202.596 260.362 203.203C260.77 204.064 261.263 204.868 261.813 205.574L260.559 207.635C260.15 208.341 260.362 209.245 261.066 209.654L265.138 212.167C265.842 212.576 266.744 212.365 267.152 211.659L268.463 209.541C269.463 209.739 270.576 209.795 271.633 209.739L272.732 212.153C273.084 212.915 273.943 213.212 274.69 212.859L279.058 210.84C279.818 210.487 280.114 209.626 279.762 208.878L278.663 206.464C279.466 205.659 280.114 204.755 280.678 203.795L283.341 204.247C284.144 204.403 284.904 203.838 285.003 203.033L285.764 198.304C285.919 197.499 285.355 196.737 284.552 196.638L281.791 196.186C281.636 195.382 281.34 194.521 280.988 193.716C280.734 193.165 280.438 192.615 280.086 192.106L281.439 189.89C281.847 189.184 281.636 188.281 280.931 187.871L276.86 185.358C276.155 184.949 275.254 185.161 274.845 185.867L273.788 187.575C272.478 187.222 271.126 187.067 269.773 187.165L269.012 185.5C268.66 184.737 267.801 184.441 267.054 184.794L262.686 186.813C261.926 187.165 261.63 188.027 261.982 188.775L262.743 190.441C261.785 191.344 261.038 192.459 260.474 193.617L258.713 193.321C257.91 193.165 257.149 193.73 257.051 194.535L256.29 199.264C256.135 200.069 256.699 200.774 257.502 200.93ZM268.463 193.278C271.478 191.866 275.099 193.222 276.507 196.243C277.916 199.264 276.564 202.892 273.549 204.304C270.534 205.715 266.913 204.36 265.504 201.339C264.095 198.318 265.448 194.69 268.463 193.278Z" fill="#C29FE9"/>
</g>
<defs>
<linearGradient id="paint0_linear_2591_297495" x1="117.924" y1="114.546" x2="254.672" y2="106.869" gradientUnits="userSpaceOnUse">
<stop stop-color="#C29FE9"/>
<stop offset="1" stop-color="#8661C5"/>
</linearGradient>
<linearGradient id="paint1_linear_2591_297495" x1="117.924" y1="114.547" x2="254.672" y2="106.869" gradientUnits="userSpaceOnUse">
<stop stop-color="#C29FE9"/>
<stop offset="1" stop-color="#8661C5"/>
</linearGradient>
<linearGradient id="paint2_linear_2591_297495" x1="79.0666" y1="36.0553" x2="138.845" y2="36.0553" gradientUnits="userSpaceOnUse">
<stop stop-color="#C29FE9"/>
<stop offset="1" stop-color="#8661C5"/>
</linearGradient>
<linearGradient id="paint3_linear_2591_297495" x1="123.221" y1="36.0412" x2="249.302" y2="36.0412" gradientUnits="userSpaceOnUse">
<stop stop-color="#C29FE9"/>
<stop offset="1" stop-color="#8661C5"/>
</linearGradient>
<clipPath id="clip0_2591_297495">
<rect width="321" height="213" fill="white"/>
</clipPath>
</defs>
</svg>
